# Cube model generated from user-provided vertices, with calculated normals and faces.
# Vertices: 8
# Normals: 6
# Faces: 12

# Vertex positions from user
v -0.5 -0.5 0.5
v  0.5 -0.5 0.5
v -0.5  0.5 0.5
v  0.5  0.5 0.5
v -0.5  0.5 -0.5
v  0.5  0.5 -0.5
v -0.5 -0.5 -0.5
v  0.5 -0.5 -0.5

# Vertex normals
vn  0.0  0.0  1.0
vn  0.0  0.0 -1.0
vn  0.0  1.0  0.0
vn  0.0 -1.0  0.0
vn  1.0  0.0  0.0
vn -1.0  0.0  0.0

# Faces (v//vn) with fully corrected Counter-Clockwise winding order
# Front face (+Z)
f 1//1 2//1 4//1
f 1//1 4//1 3//1
# Back face (-Z)
f 7//2 5//2 6//2
f 7//2 6//2 8//2
# Top face (+Y)
f 3//3 4//3 6//3
f 3//3 6//3 5//3
# Bottom face (-Y)
f 2//4 1//4 7//4
f 2//4 7//4 8//4
# Right face (+X)
f 2//5 8//5 6//5
f 2//5 6//5 4//5
# Left face (-X)
f 7//6 1//6 3//6
f 7//6 3//6 5//6
